<svg width="29" height="26" viewBox="0 0 29 26" fill="none" xmlns="http://www.w3.org/2000/svg">
<path d="M25.8929 0H3.10714C2.28308 0 1.49276 0.293494 0.910061 0.815917C0.327359 1.33834 0 2.0469 0 2.78571L0 23.2143C0 23.9531 0.327359 24.6617 0.910061 25.1841C1.49276 25.7065 2.28308 26 3.10714 26H11.9916V17.1606H7.9135V13H11.9916V9.82893C11.9916 6.22201 14.3867 4.22964 18.0551 4.22964C19.8119 4.22964 21.649 4.51054 21.649 4.51054V8.05071H19.6248C17.6304 8.05071 17.0084 9.16036 17.0084 10.2984V13H21.4606L20.7486 17.1606H17.0084V26H25.8929C26.7169 26 27.5072 25.7065 28.0899 25.1841C28.6726 24.6617 29 23.9531 29 23.2143V2.78571C29 2.0469 28.6726 1.33834 28.0899 0.815917C27.5072 0.293494 26.7169 0 25.8929 0Z" fill="black"/>
</svg>
