<svg width="29" height="26" viewBox="0 0 29 26" fill="none" xmlns="http://www.w3.org/2000/svg">
<path d="M26.0191 6.47966C26.0375 6.76403 26.0375 7.04845 26.0375 7.33281C26.0375 16.0062 20.0572 26 9.12694 26C5.75952 26 2.63136 24.9234 0 23.0547C0.478445 23.1156 0.938426 23.1359 1.43528 23.1359C4.2138 23.1359 6.77158 22.1 8.81411 20.3328C6.20115 20.2719 4.01142 18.3828 3.25696 15.7828C3.62501 15.8437 3.99301 15.8843 4.37947 15.8843C4.91308 15.8843 5.44675 15.8031 5.94355 15.6609C3.2202 15.0515 1.17762 12.4109 1.17762 9.22186V9.14064C1.96884 9.62815 2.88897 9.93283 3.86415 9.97341C2.26326 8.79526 1.21444 6.78435 1.21444 4.50933C1.21444 3.2906 1.5088 2.17341 2.02406 1.19841C4.94984 5.17965 9.34772 7.77961 14.2792 8.06403C14.1872 7.57653 14.1319 7.06877 14.1319 6.56095C14.1319 2.94528 16.7817 0 20.0755 0C21.7868 0 23.3325 0.792185 24.4182 2.07187C25.7614 1.78751 27.0495 1.23905 28.1904 0.487504C27.7487 2.01098 26.8103 3.29066 25.5774 4.10311C26.7735 3.96099 27.9328 3.59528 29 3.08752C28.1905 4.38747 27.1784 5.54524 26.0191 6.47966Z" fill="black"/>
</svg>
