<svg width="29" height="26" viewBox="0 0 29 26" fill="none" xmlns="http://www.w3.org/2000/svg">
<path d="M24.6565 3.77812C21.9442 1.34062 18.3321 0 14.4935 0C6.57031 0 0.122991 5.78036 0.122991 12.8839C0.122991 15.1531 0.783259 17.3701 2.03906 19.3259L0 26L7.61897 24.2067C9.71629 25.2339 12.079 25.7737 14.4871 25.7737H14.4935C22.4103 25.7737 29 19.9933 29 12.8897C29 9.44821 27.3687 6.21562 24.6565 3.77812ZM14.4935 23.6031C12.3444 23.6031 10.2406 23.0866 8.4087 22.1116L7.975 21.8795L3.4567 22.9415L4.66071 18.9893L4.37589 18.583C3.17835 16.8768 2.55045 14.9094 2.55045 12.8839C2.55045 6.9817 7.91027 2.17634 14.5 2.17634C17.6913 2.17634 20.6884 3.29062 22.9411 5.31607C25.1937 7.34152 26.579 10.0286 26.5725 12.8897C26.5725 18.7978 21.0768 23.6031 14.4935 23.6031ZM21.0444 15.5826C20.6884 15.4201 18.9212 14.6424 18.5911 14.5379C18.2609 14.4277 18.0214 14.3754 17.7819 14.7004C17.5424 15.0254 16.8563 15.7451 16.6426 15.9656C16.4355 16.1804 16.2219 16.2094 15.8658 16.0469C13.7556 15.1009 12.3703 14.358 10.9786 12.2165C10.6096 11.6478 11.3475 11.6884 12.0337 10.458C12.1502 10.2433 12.092 10.0576 12.0013 9.89509C11.9107 9.73259 11.1922 8.14821 10.8944 7.50402C10.6031 6.87723 10.3054 6.96429 10.0853 6.95268C9.87813 6.94107 9.63862 6.94107 9.39911 6.94107C9.1596 6.94107 8.7712 7.02232 8.44107 7.34152C8.11094 7.66652 7.18527 8.4442 7.18527 10.0286C7.18527 11.6129 8.47344 13.1451 8.64821 13.3598C8.82946 13.5746 11.1792 16.8246 14.7848 18.2232C17.0634 19.1054 17.9567 19.1808 19.096 19.0299C19.7886 18.9371 21.2192 18.2522 21.517 17.4978C21.8147 16.7433 21.8147 16.0991 21.7241 15.9656C21.64 15.8205 21.4004 15.7393 21.0444 15.5826Z" fill="black"/>
</svg>
